<?xml version="1.0" encoding="UTF-8"?>
<svg xmlns="http://www.w3.org/2000/svg" viewBox="0 0 96 96">
  <path d="m53.15,67.78c-2.52,0-5.03-.51-7.41-1.54-4.6-1.98-8.16-5.63-10.01-10.29-1.85-4.65-1.78-9.75.2-14.35,1.98-4.6,5.63-8.16,10.29-10.01l30.56-12.17c3.04-1.21,6.48.27,7.69,3.31,1.21,3.04-.27,6.48-3.31,7.69l-30.56,12.17c-1.72.68-3.06,1.99-3.79,3.69-.73,1.7-.76,3.58-.07,5.29.68,1.72,1.99,3.06,3.69,3.79,1.7.73,3.58.76,5.29.07,3.04-1.21,6.48.27,7.69,3.31,1.21,3.04-.27,6.48-3.31,7.69-2.25.89-4.6,1.34-6.94,1.34Z" fill="#36a9e1"/>
  <path d="m53.15,79.65c-4.11,0-8.21-.84-12.09-2.51-7.51-3.23-13.31-9.19-16.34-16.79s-2.91-15.92.32-23.43c3.23-7.51,9.19-13.31,16.79-16.34l20.52-8.17c3.04-1.21,6.48.27,7.69,3.31,1.21,3.04-.27,6.48-3.31,7.69l-20.52,8.17c-4.66,1.86-8.32,5.42-10.3,10.02s-2.05,9.71-.2,14.37,5.42,8.32,10.02,10.3c4.61,1.98,9.71,2.05,14.37.2,3.04-1.21,6.48.27,7.69,3.31,1.21,3.04-.27,6.48-3.31,7.69-3.67,1.46-7.5,2.19-11.33,2.19Z" fill="#2a8dcd"/>
  <path d="m53.21,91.07c-16.72,0-32.56-10.04-39.11-26.49-8.58-21.54,1.96-46.04,23.5-54.62l11.56-4.6c3.04-1.21,6.48.27,7.69,3.31,1.21,3.04-.27,6.48-3.31,7.69l-11.56,4.6c-15.47,6.16-23.05,23.77-16.89,39.24,6.16,15.47,23.77,23.05,39.24,16.89,3.04-1.21,6.48.27,7.69,3.31,1.21,3.04-.27,6.48-3.31,7.69-5.09,2.03-10.34,2.99-15.51,2.99Z" fill="#1d71b8"/>
</svg>
