<svg xmlns="http://www.w3.org/2000/svg" viewBox="0 0 96 96"><path fill="#36a9e1" d="M53.15 67.78c-2.52 0-5.03-.51-7.41-1.54-4.6-1.98-8.16-5.63-10.01-10.29-1.85-4.65-1.78-9.75.2-14.35s5.63-8.16 10.29-10.01l30.56-12.17c3.04-1.21 6.48.27 7.69 3.31a5.917 5.917 0 0 1-3.31 7.69L50.6 42.59a6.828 6.828 0 0 0-3.79 3.69c-.73 1.7-.76 3.58-.07 5.29a6.828 6.828 0 0 0 3.69 3.79c1.7.73 3.58.76 5.29.07 3.04-1.21 6.48.27 7.69 3.31a5.917 5.917 0 0 1-3.31 7.69c-2.25.89-4.6 1.34-6.94 1.34Z"/><path fill="#2a8dcd" d="M53.15 79.65c-4.11 0-8.21-.84-12.09-2.51-7.51-3.23-13.31-9.19-16.34-16.79s-2.91-15.92.32-23.43 9.19-13.31 16.79-16.34l20.52-8.17c3.04-1.21 6.48.27 7.69 3.31a5.917 5.917 0 0 1-3.31 7.69l-20.52 8.17c-4.66 1.86-8.32 5.42-10.3 10.02s-2.05 9.71-.2 14.37 5.42 8.32 10.02 10.3c4.61 1.98 9.71 2.05 14.37.2 3.04-1.21 6.48.27 7.69 3.31a5.917 5.917 0 0 1-3.31 7.69c-3.67 1.46-7.5 2.19-11.33 2.19Z"/><path fill="#1d71b8" d="M53.21 91.07c-16.72 0-32.56-10.04-39.11-26.49-8.58-21.54 1.96-46.04 23.5-54.62l11.56-4.6c3.04-1.21 6.48.27 7.69 3.31a5.917 5.917 0 0 1-3.31 7.69l-11.56 4.6C26.51 27.12 18.93 44.73 25.09 60.2c6.16 15.47 23.77 23.05 39.24 16.89 3.04-1.21 6.48.27 7.69 3.31a5.917 5.917 0 0 1-3.31 7.69 41.777 41.777 0 0 1-15.51 2.99Z"/></svg>